M48
; DRILL file {KiCad 9.0.6} date 2026-07-16T12:05:06+0200
; FORMAT={-:-/ absolute / metric / decimal}
; #@! TF.CreationDate,2026-07-16T12:05:06+02:00
; #@! TF.GenerationSoftware,Kicad,Pcbnew,9.0.6
; #@! TF.FileFunction,Plated,1,4,PTH
FMAT,2
METRIC
; #@! TA.AperFunction,Plated,PTH,ViaDrill
T1C0.300
; #@! TA.AperFunction,Plated,PTH,ViaDrill
T2C0.400
; #@! TA.AperFunction,Plated,PTH,ComponentDrill
T3C1.000
; #@! TA.AperFunction,Plated,PTH,ComponentDrill
T4C3.200
%
G90
G05
T1
X71.15Y-85.2
X71.3Y-61.55
X71.35Y-95.65
X71.35Y-133.45
X71.45Y-97.4
X71.45Y-101.8
X71.5Y-64.0
X71.5Y-66.4
X71.6Y-104.45
X71.65Y-92.55
X71.65Y-137.45
X71.7Y-140.15
X71.701Y-138.895
X71.767Y-99.129
X71.85Y-94.15
X71.9Y-106.65
X71.984Y-82.14
X72.05Y-112.45
X72.05Y-132.25
X72.05Y-134.75
X72.15Y-109.45
X72.2Y-86.35
X72.2Y-88.55
X72.225Y-114.686
X72.25Y-83.85
X72.35Y-117.3
X72.45Y-90.8
X72.65Y-59.35
X72.683Y-87.47
X73.45Y-99.6
X73.6Y-92.65
X73.8Y-140.2
X73.9Y-66.1
X74.0Y-90.75
X74.25Y-107.2
X74.45Y-127.15
X75.1Y-92.85
X75.35Y-90.9
X75.45Y-129.55
X76.25Y-59.7
X76.55Y-140.5
X76.8Y-92.8
X77.05Y-107.1
X77.314Y-100.111
X77.45Y-56.7
X77.95Y-142.25
X78.25Y-58.75
X78.35Y-136.3
X78.4Y-137.9
X78.55Y-60.9
X78.55Y-95.8
X78.596Y-106.941
X78.6Y-102.6
X78.6Y-104.45
X78.75Y-91.4
X78.85Y-93.9
X78.95Y-139.9
X79.05Y-101.35
X79.2Y-143.05
X79.3Y-97.6
X79.5Y-135.3
X79.55Y-99.25
X79.65Y-57.75
X80.0Y-138.4
X80.5Y-140.9
X80.6Y-136.6
X80.7Y-59.4
X80.7Y-135.4
X80.85Y-142.85
X81.2Y-137.7
X81.931Y-138.555
X82.0Y-139.7
X82.3Y-141.1
X82.65Y-57.05
X83.0Y-142.4
X83.651Y-139.812
X84.2Y-143.4
X85.35Y-103.15
X85.6Y-98.45
X85.7Y-56.7
X85.85Y-94.45
X85.95Y-84.75
X86.05Y-89.3
X86.7Y-137.8
X86.95Y-105.65
X87.0Y-77.75
X87.4Y-73.15
X87.8Y-138.0
X87.95Y-136.6
X87.95Y-140.118
X88.0Y-128.8
X88.15Y-129.75
X88.6Y-143.5
X89.0Y-136.9
X89.05Y-138.2
X89.05Y-139.75
X89.1Y-112.65
X89.4Y-130.1
X89.4Y-140.5
X90.029Y-130.986
X90.1Y-138.2
X90.3Y-125.85
X91.282Y-140.117
X91.35Y-107.4
X91.4Y-126.8
X91.85Y-80.7
X91.9Y-143.6
X92.1Y-70.05
X92.1Y-76.25
X92.226Y-85.0
X92.329Y-126.336
X92.7Y-124.9
X93.0Y-123.3
X93.146Y-70.95
X93.15Y-70.2
X93.151Y-71.75
X93.351Y-134.183
X93.429Y-128.986
X93.8Y-124.0
X94.169Y-134.196
X94.392Y-137.252
X94.401Y-71.212
X94.401Y-75.862
X94.401Y-80.513
X94.401Y-85.162
X94.401Y-89.812
X94.401Y-94.462
X94.401Y-99.112
X94.401Y-103.762
X94.401Y-108.412
X94.401Y-113.012
X94.401Y-117.712
X94.401Y-122.336
X94.451Y-136.062
X94.6Y-130.0
X94.6Y-132.25
X94.6Y-139.0
X94.7Y-82.4
X94.7Y-101.0
X94.8Y-91.7
X94.8Y-96.4
X94.8Y-124.3
X95.0Y-73.1
X95.0Y-141.4
X95.1Y-127.3
X95.151Y-71.212
X95.151Y-75.862
X95.151Y-80.513
X95.151Y-85.162
X95.151Y-89.812
X95.151Y-94.462
X95.151Y-99.112
X95.151Y-103.762
X95.151Y-108.412
X95.151Y-113.012
X95.151Y-117.712
X95.151Y-122.336
X95.2Y-143.6
X95.6Y-128.6
X95.8Y-126.1
X96.05Y-140.85
X96.071Y-124.529
X97.851Y-137.261
X98.45Y-132.25
X98.5Y-134.1
X98.5Y-135.0
X98.5Y-135.8
X98.6Y-143.6
X99.3Y-135.0
X99.3Y-135.8
X100.05Y-77.05
X100.3Y-141.161
X100.35Y-82.15
X100.5Y-91.5
X100.9Y-85.5
X100.95Y-95.25
X101.15Y-99.45
X101.3Y-140.4
X101.55Y-102.65
X102.1Y-143.6
X102.35Y-136.6
X103.6Y-136.7
X104.61Y-137.69
X105.0Y-129.0
X105.3Y-136.7
X105.5Y-137.5
X105.5Y-143.5
X106.0Y-138.1
X106.1Y-130.4
X106.25Y-136.6
X107.05Y-139.85
X107.278Y-128.376
X107.65Y-140.7
X107.65Y-141.5
X107.75Y-139.95
X107.85Y-70.1
X107.85Y-109.45
X107.85Y-117.85
X108.1Y-122.3
X108.1Y-138.2
X108.3Y-129.5
X108.4Y-140.4
X108.801Y-70.45
X108.801Y-71.25
X108.801Y-72.1
X108.968Y-128.453
X109.1Y-139.85
X109.1Y-143.5
X109.6Y-138.0
X110.051Y-71.574
X110.051Y-76.224
X110.051Y-80.874
X110.051Y-85.524
X110.051Y-90.174
X110.051Y-94.824
X110.051Y-99.474
X110.051Y-104.124
X110.051Y-108.774
X110.051Y-113.374
X110.051Y-118.074
X110.051Y-122.697
X110.4Y-78.1
X110.4Y-92.0
X110.4Y-96.6
X110.4Y-106.0
X110.4Y-110.6
X110.4Y-115.2
X110.411Y-136.948
X110.5Y-101.3
X110.7Y-130.6
X110.801Y-71.574
X110.801Y-76.224
X110.801Y-80.874
X110.801Y-85.524
X110.801Y-90.174
X110.801Y-94.824
X110.801Y-99.474
X110.801Y-104.124
X110.801Y-108.774
X110.801Y-113.374
X110.801Y-118.074
X110.801Y-122.697
X111.0Y-73.4
X111.0Y-134.0
X111.1Y-142.0
X111.6Y-70.6
X112.45Y-80.95
X112.6Y-131.3
X113.221Y-139.419
X113.3Y-142.5
X113.4Y-135.4
X113.6Y-128.3
X113.8Y-133.1
X114.892Y-141.263
X115.418Y-60.3
X115.6Y-130.6
X116.1Y-135.0
X116.2Y-138.8
X116.39Y-142.876
X117.3Y-133.6
X117.95Y-56.95
X117.95Y-72.85
X117.95Y-88.5
X117.95Y-104.15
X117.95Y-119.8
X118.1Y-131.8
X118.6Y-140.2
X118.752Y-141.897
X119.8Y-134.5
X120.05Y-71.15
X120.05Y-76.2
X120.4Y-133.2
X120.7Y-138.7
X121.1Y-143.0
X121.4Y-135.5
X122.0Y-140.1
X122.6Y-56.95
X122.6Y-72.85
X122.6Y-88.5
X122.6Y-104.15
X122.6Y-119.8
X122.9Y-141.7
X123.009Y-133.491
X124.1Y-138.9
X124.3Y-135.5
X124.7Y-71.15
X124.7Y-91.9
X125.1Y-143.1
X125.5Y-140.2
X127.0Y-133.5
X127.2Y-141.8
X127.25Y-56.95
X127.25Y-72.85
X127.25Y-88.45
X127.25Y-104.1
X127.25Y-119.8
X127.5Y-138.8
X128.5Y-135.5
X129.122Y-140.975
X129.35Y-71.15
X129.35Y-107.6
X129.6Y-133.5
X131.1Y-139.5
X131.2Y-135.4
X131.312Y-142.358
X131.8Y-133.6
X131.9Y-56.95
X131.9Y-72.85
X131.9Y-88.5
X131.9Y-104.15
X131.9Y-119.8
X133.6Y-140.7
X134.0Y-71.15
X134.0Y-123.2
X134.0Y-135.7
X134.1Y-133.5
X134.1Y-142.2
X135.799Y-133.683
X136.151Y-139.65
X136.55Y-56.95
X136.55Y-72.85
X136.55Y-88.5
X136.55Y-104.15
X136.55Y-119.75
X136.8Y-135.4
X136.9Y-142.4
X138.1Y-133.7
X138.4Y-140.9
X139.2Y-135.2
X139.9Y-139.4
X140.8Y-142.6
X141.1Y-133.5
X141.2Y-56.95
X141.2Y-72.85
X141.2Y-88.5
X141.2Y-104.15
X141.2Y-119.8
X141.7Y-135.5
X142.2Y-141.0
X143.6Y-133.6
X143.8Y-139.8
X144.6Y-142.4
X145.3Y-135.5
X145.85Y-56.95
X145.85Y-72.85
X145.85Y-88.5
X145.85Y-104.15
X145.85Y-119.8
X145.9Y-133.6
X146.925Y-139.419
X147.7Y-142.4
X147.9Y-135.5
X149.2Y-133.6
X150.5Y-56.95
X150.5Y-72.85
X150.5Y-88.5
X150.5Y-104.15
X150.5Y-119.75
X150.7Y-140.4
X150.8Y-135.5
X151.0Y-142.4
X152.05Y-80.05
X152.1Y-95.9
X152.1Y-111.6
X152.15Y-64.05
X152.2Y-127.2
X152.7Y-139.1
X152.9Y-141.4
X154.2Y-135.55
X155.1Y-77.0
X155.1Y-88.8
X155.1Y-90.2
X155.1Y-91.6
X155.1Y-92.8
X155.1Y-120.2
X155.1Y-121.4
X155.1Y-122.8
X155.1Y-124.2
X155.1Y-136.05
X155.2Y-104.5
X155.2Y-106.0
X155.2Y-107.1
X155.2Y-108.4
X155.317Y-74.963
X155.65Y-138.7
X155.65Y-139.4
X155.65Y-140.1
X155.65Y-140.8
X155.65Y-141.5
X155.65Y-142.2
X155.7Y-73.3
X156.0Y-61.3
X156.4Y-138.7
X156.4Y-139.4
X156.4Y-140.1
X156.4Y-140.8
X156.4Y-141.5
X156.4Y-142.2
X157.0Y-135.4
X157.15Y-136.1
X157.15Y-138.7
X157.15Y-139.4
X157.15Y-140.1
X157.15Y-140.8
X157.15Y-141.5
X157.15Y-142.2
X157.2Y-72.6
X157.2Y-104.2
X157.3Y-92.2
X157.3Y-108.6
X157.45Y-121.5
X157.5Y-123.8
X157.6Y-88.6
X157.65Y-75.65
X157.73Y-107.042
X157.85Y-105.7
X157.85Y-135.4
X157.9Y-90.95
X158.2Y-77.6
X158.4Y-61.5
X158.4Y-108.7
X158.4Y-143.6
X158.416Y-74.194
X158.7Y-72.55
X158.8Y-81.0
X158.8Y-96.65
X158.8Y-112.35
X158.85Y-65.15
X158.9Y-92.9
X158.9Y-135.55
X159.2Y-89.7
X159.7Y-57.95
X159.7Y-124.4
X159.8Y-120.0
X159.9Y-122.3
X160.0Y-137.0
X160.2Y-61.5
X160.2Y-64.2
X160.496Y-109.381
X160.5Y-65.7
X160.6Y-111.9
X160.7Y-76.8
X160.75Y-75.25
X160.85Y-120.55
X160.85Y-127.65
X161.0Y-80.5
X161.05Y-105.3
X161.053Y-73.042
X161.053Y-78.317
X161.1Y-92.9
X161.2Y-89.9
X161.2Y-94.2
X161.2Y-103.3
X161.3Y-62.8
X161.4Y-124.0
X161.65Y-88.0
X161.7Y-119.1
X161.7Y-122.2
X161.8Y-107.2
X161.8Y-110.7
X161.9Y-102.2
X161.9Y-117.6
X162.0Y-116.25
X162.096Y-81.032
X162.098Y-96.692
X162.099Y-65.145
X162.1Y-61.3
X162.1Y-84.9
X162.1Y-95.2
X162.1Y-112.339
X162.1Y-127.999
X162.153Y-100.55
X162.2Y-91.5
X162.2Y-131.9
X162.2Y-135.9
X162.9Y-63.4
X163.4Y-78.4
X163.5Y-73.6
X163.5Y-76.2
X163.5Y-136.9
X163.6Y-71.2
X163.7Y-126.1
X163.7Y-134.4
X163.7Y-143.6
X163.8Y-102.5
X163.8Y-105.2
X163.8Y-108.0
X163.8Y-110.5
X163.9Y-117.4
X163.9Y-118.8
X163.9Y-120.5
X163.9Y-122.3
X164.0Y-86.6
X164.0Y-92.6
X164.036Y-89.432
X164.15Y-123.8
X164.4Y-63.4
X164.8Y-96.85
X165.45Y-123.8
X165.9Y-77.2
X165.9Y-80.4
X165.9Y-83.0
X165.9Y-85.6
X165.9Y-91.0
X165.9Y-128.5
X165.9Y-131.3
X165.95Y-69.0
X165.95Y-71.0
X165.95Y-73.0
X165.95Y-75.0
X166.0Y-88.2
X166.0Y-125.6
X166.1Y-94.5
X166.3Y-98.0
X166.3Y-106.0
X166.3Y-110.0
X166.3Y-114.0
X166.3Y-117.9
X166.3Y-122.0
X166.4Y-102.0
T2
X165.55Y-132.99
X165.55Y-134.99
X165.55Y-137.0
X165.55Y-138.99
X165.7Y-52.2
X165.9Y-56.14
X165.9Y-58.14
X165.9Y-147.8
X165.95Y-61.0
X165.95Y-63.0
X165.95Y-65.0
X165.95Y-67.0
X166.1Y-141.84
X166.1Y-143.84
T3
X74.95Y-71.525
X74.95Y-74.295
X74.95Y-77.065
X74.95Y-79.835
X74.95Y-82.605
X74.95Y-85.375
X74.95Y-88.145
X74.95Y-111.835
X74.95Y-114.605
X74.95Y-117.375
X74.95Y-120.145
X74.95Y-122.915
X74.95Y-125.685
X74.95Y-128.455
X77.79Y-70.14
X77.79Y-72.91
X77.79Y-75.68
X77.79Y-78.45
X77.79Y-81.22
X77.79Y-83.99
X77.79Y-86.76
X77.79Y-89.53
X77.79Y-110.45
X77.79Y-113.22
X77.79Y-115.99
X77.79Y-118.76
X77.79Y-121.53
X77.79Y-124.3
X77.79Y-127.07
X77.79Y-129.84
T4
X74.95Y-63.185
X74.95Y-96.485
X74.95Y-103.495
X74.95Y-136.795
M30
