%TF.GenerationSoftware,KiCad,Pcbnew,9.0.6*%
%TF.CreationDate,2026-07-16T12:05:06+02:00*%
%TF.ProjectId,SSM_board,53534d5f-626f-4617-9264-2e6b69636164,0.1*%
%TF.SameCoordinates,Original*%
%TF.FileFunction,Paste,Bot*%
%TF.FilePolarity,Positive*%
%FSLAX46Y46*%
G04 Gerber Fmt 4.6, Leading zero omitted, Abs format (unit mm)*
G04 Created by KiCad (PCBNEW 9.0.6) date 2026-07-16 12:05:06*
%MOMM*%
%LPD*%
G01*
G04 APERTURE LIST*
G04 Aperture macros list*
%AMRoundRect*
0 Rectangle with rounded corners*
0 $1 Rounding radius*
0 $2 $3 $4 $5 $6 $7 $8 $9 X,Y pos of 4 corners*
0 Add a 4 corners polygon primitive as box body*
4,1,4,$2,$3,$4,$5,$6,$7,$8,$9,$2,$3,0*
0 Add four circle primitives for the rounded corners*
1,1,$1+$1,$2,$3*
1,1,$1+$1,$4,$5*
1,1,$1+$1,$6,$7*
1,1,$1+$1,$8,$9*
0 Add four rect primitives between the rounded corners*
20,1,$1+$1,$2,$3,$4,$5,0*
20,1,$1+$1,$4,$5,$6,$7,0*
20,1,$1+$1,$6,$7,$8,$9,0*
20,1,$1+$1,$8,$9,$2,$3,0*%
G04 Aperture macros list end*
%ADD10RoundRect,0.150000X-1.350000X-0.350000X1.350000X-0.350000X1.350000X0.350000X-1.350000X0.350000X0*%
G04 APERTURE END LIST*
D10*
%TO.C,X1*%
X168390000Y-60990000D03*
X168390000Y-62990000D03*
X168390000Y-64990000D03*
X168390000Y-66990000D03*
X168390000Y-68990000D03*
X168390000Y-70990000D03*
X168390000Y-72990000D03*
X168390000Y-74990000D03*
X168390000Y-76990000D03*
X168390000Y-78990000D03*
X168390000Y-80990000D03*
X168390000Y-82990000D03*
X168390000Y-84990000D03*
X168390000Y-86990000D03*
X168390000Y-88990000D03*
X168390000Y-90990000D03*
X168390000Y-92990000D03*
X168390000Y-94990000D03*
X168390000Y-96990000D03*
X168390000Y-98990000D03*
X168390000Y-100990000D03*
X168390000Y-102990000D03*
X168390000Y-104990000D03*
X168390000Y-106990000D03*
X168390000Y-108990000D03*
X168390000Y-110990000D03*
X168390000Y-112990000D03*
X168390000Y-114990000D03*
X168390000Y-116990000D03*
X168390000Y-118990000D03*
X168390000Y-120990000D03*
X168390000Y-122990000D03*
X168390000Y-124990000D03*
X168390000Y-126990000D03*
X168390000Y-128990000D03*
X168390000Y-130990000D03*
X168390000Y-132990000D03*
X168390000Y-134990000D03*
X168390000Y-136990000D03*
X168390000Y-138990000D03*
X168390000Y-56140000D03*
X168390000Y-58140000D03*
X168390000Y-141840000D03*
X168390000Y-143840000D03*
%TD*%
M02*
