%TF.GenerationSoftware,KiCad,Pcbnew,9.0.6*%
%TF.CreationDate,2026-07-16T12:05:06+02:00*%
%TF.ProjectId,SSM_board,53534d5f-626f-4617-9264-2e6b69636164,0.1*%
%TF.SameCoordinates,Original*%
%TF.FileFunction,Soldermask,Top*%
%TF.FilePolarity,Negative*%
%FSLAX46Y46*%
G04 Gerber Fmt 4.6, Leading zero omitted, Abs format (unit mm)*
G04 Created by KiCad (PCBNEW 9.0.6) date 2026-07-16 12:05:06*
%MOMM*%
%LPD*%
G01*
G04 APERTURE LIST*
G04 Aperture macros list*
%AMRoundRect*
0 Rectangle with rounded corners*
0 $1 Rounding radius*
0 $2 $3 $4 $5 $6 $7 $8 $9 X,Y pos of 4 corners*
0 Add a 4 corners polygon primitive as box body*
4,1,4,$2,$3,$4,$5,$6,$7,$8,$9,$2,$3,0*
0 Add four circle primitives for the rounded corners*
1,1,$1+$1,$2,$3*
1,1,$1+$1,$4,$5*
1,1,$1+$1,$6,$7*
1,1,$1+$1,$8,$9*
0 Add four rect primitives between the rounded corners*
20,1,$1+$1,$2,$3,$4,$5,0*
20,1,$1+$1,$4,$5,$6,$7,0*
20,1,$1+$1,$6,$7,$8,$9,0*
20,1,$1+$1,$8,$9,$2,$3,0*%
G04 Aperture macros list end*
%ADD10RoundRect,0.237500X-0.237500X0.250000X-0.237500X-0.250000X0.237500X-0.250000X0.237500X0.250000X0*%
%ADD11RoundRect,0.250000X-0.412500X-0.650000X0.412500X-0.650000X0.412500X0.650000X-0.412500X0.650000X0*%
%ADD12RoundRect,0.137500X0.137500X-0.587500X0.137500X0.587500X-0.137500X0.587500X-0.137500X-0.587500X0*%
%ADD13R,1.480000X0.450000*%
%ADD14RoundRect,0.237500X-0.250000X-0.237500X0.250000X-0.237500X0.250000X0.237500X-0.250000X0.237500X0*%
%ADD15C,4.000000*%
%ADD16R,1.600000X1.600000*%
%ADD17C,1.600000*%
%ADD18R,0.800000X0.500000*%
%ADD19R,0.800000X0.400000*%
%ADD20RoundRect,0.137500X-0.587500X-0.137500X0.587500X-0.137500X0.587500X0.137500X-0.587500X0.137500X0*%
%ADD21RoundRect,0.237500X0.300000X0.237500X-0.300000X0.237500X-0.300000X-0.237500X0.300000X-0.237500X0*%
%ADD22C,2.700000*%
%ADD23RoundRect,0.237500X0.237500X-0.300000X0.237500X0.300000X-0.237500X0.300000X-0.237500X-0.300000X0*%
%ADD24R,0.450000X1.480000*%
%ADD25RoundRect,0.218750X0.256250X-0.218750X0.256250X0.218750X-0.256250X0.218750X-0.256250X-0.218750X0*%
%ADD26RoundRect,0.250000X0.412500X0.650000X-0.412500X0.650000X-0.412500X-0.650000X0.412500X-0.650000X0*%
%ADD27R,0.500000X0.800000*%
%ADD28R,0.400000X0.800000*%
%ADD29RoundRect,0.237500X0.237500X-0.250000X0.237500X0.250000X-0.237500X0.250000X-0.237500X-0.250000X0*%
%ADD30RoundRect,0.250000X0.650000X-0.412500X0.650000X0.412500X-0.650000X0.412500X-0.650000X-0.412500X0*%
%ADD31RoundRect,0.218750X0.218750X0.256250X-0.218750X0.256250X-0.218750X-0.256250X0.218750X-0.256250X0*%
%ADD32RoundRect,0.150000X-1.350000X-0.350000X1.350000X-0.350000X1.350000X0.350000X-1.350000X0.350000X0*%
G04 APERTURE END LIST*
D10*
%TO.C,R605*%
X87525000Y-69785000D03*
X87525000Y-71610000D03*
%TD*%
%TO.C,R602*%
X87525000Y-97695000D03*
X87525000Y-99520000D03*
%TD*%
D11*
%TO.C,C11*%
X158337500Y-139250000D03*
X161462500Y-139250000D03*
%TD*%
D12*
%TO.C,U107*%
X124717601Y-126698982D03*
X127257601Y-126698982D03*
X127257601Y-121198982D03*
X124717601Y-121198982D03*
%TD*%
D13*
%TO.C,IC4*%
X157487601Y-80368000D03*
X157487601Y-81018000D03*
X157487601Y-81668000D03*
X157487601Y-82318000D03*
X157487601Y-82968000D03*
X157487601Y-83618000D03*
X157487601Y-84268000D03*
X157487601Y-84918000D03*
X163357601Y-84918000D03*
X163357601Y-84268000D03*
X163357601Y-83618000D03*
X163357601Y-82968000D03*
X163357601Y-82318000D03*
X163357601Y-81668000D03*
X163357601Y-81018000D03*
X163357601Y-80368000D03*
%TD*%
D10*
%TO.C,R610*%
X87525000Y-116295000D03*
X87525000Y-118120000D03*
%TD*%
D14*
%TO.C,R304*%
X134362601Y-97128327D03*
X136187601Y-97128327D03*
%TD*%
D15*
%TO.C,J2*%
X74950000Y-103495000D03*
X74950000Y-136795000D03*
D16*
X77790000Y-110450000D03*
D17*
X77790000Y-113220000D03*
X77790000Y-115990000D03*
X77790000Y-118760000D03*
X77790000Y-121530000D03*
X77790000Y-124300000D03*
X77790000Y-127070000D03*
X77790000Y-129840000D03*
X74950000Y-111835000D03*
X74950000Y-114605000D03*
X74950000Y-117375000D03*
X74950000Y-120145000D03*
X74950000Y-122915000D03*
X74950000Y-125685000D03*
X74950000Y-128455000D03*
%TD*%
D12*
%TO.C,U401*%
X147955101Y-79718000D03*
X150495101Y-79718000D03*
X150495101Y-74218000D03*
X147955101Y-74218000D03*
%TD*%
D18*
%TO.C,RN9*%
X155187601Y-67981482D03*
D19*
X155187601Y-67181482D03*
X155187601Y-66381482D03*
D18*
X155187601Y-65581482D03*
X153387601Y-65581482D03*
D19*
X153387601Y-66381482D03*
X153387601Y-67181482D03*
D18*
X153387601Y-67981482D03*
%TD*%
D12*
%TO.C,U305*%
X115417601Y-95378327D03*
X117957601Y-95378327D03*
X117957601Y-89878327D03*
X115417601Y-89878327D03*
%TD*%
%TO.C,U301*%
X147955101Y-95378327D03*
X150495101Y-95378327D03*
X150495101Y-89878327D03*
X147955101Y-89878327D03*
%TD*%
D20*
%TO.C,U711*%
X104925000Y-97657500D03*
X104925000Y-100197500D03*
X110425000Y-100197500D03*
X110425000Y-97657500D03*
%TD*%
D18*
%TO.C,RN6*%
X153987601Y-100888655D03*
D19*
X153987601Y-101688655D03*
X153987601Y-102488655D03*
D18*
X153987601Y-103288655D03*
X155787601Y-103288655D03*
D19*
X155787601Y-102488655D03*
X155787601Y-101688655D03*
D18*
X155787601Y-100888655D03*
%TD*%
D14*
%TO.C,R402*%
X143662601Y-81518000D03*
X145487601Y-81518000D03*
%TD*%
D15*
%TO.C,J1*%
X74950000Y-63185000D03*
X74950000Y-96485000D03*
D16*
X77790000Y-70140000D03*
D17*
X77790000Y-72910000D03*
X77790000Y-75680000D03*
X77790000Y-78450000D03*
X77790000Y-81220000D03*
X77790000Y-83990000D03*
X77790000Y-86760000D03*
X77790000Y-89530000D03*
X74950000Y-71525000D03*
X74950000Y-74295000D03*
X74950000Y-77065000D03*
X74950000Y-79835000D03*
X74950000Y-82605000D03*
X74950000Y-85375000D03*
X74950000Y-88145000D03*
%TD*%
D12*
%TO.C,U501*%
X147955101Y-63831482D03*
X150495101Y-63831482D03*
X150495101Y-58331482D03*
X147955101Y-58331482D03*
%TD*%
D10*
%TO.C,R608*%
X87525000Y-83745000D03*
X87525000Y-85570000D03*
%TD*%
D14*
%TO.C,R308*%
X129725101Y-97128327D03*
X131550101Y-97128327D03*
%TD*%
D10*
%TO.C,R702*%
X103175000Y-74765000D03*
X103175000Y-76590000D03*
%TD*%
D21*
%TO.C,C2*%
X159212601Y-110238655D03*
X157487601Y-110238655D03*
%TD*%
D12*
%TO.C,U101*%
X147955101Y-126698982D03*
X150495101Y-126698982D03*
X150495101Y-121198982D03*
X147955101Y-121198982D03*
%TD*%
D20*
%TO.C,U607*%
X89275000Y-78737500D03*
X89275000Y-81277500D03*
X94775000Y-81277500D03*
X94775000Y-78737500D03*
%TD*%
D12*
%TO.C,U203*%
X138655101Y-111038655D03*
X141195101Y-111038655D03*
X141195101Y-105538655D03*
X138655101Y-105538655D03*
%TD*%
D14*
%TO.C,R104*%
X134362601Y-128448982D03*
X136187601Y-128448982D03*
%TD*%
D18*
%TO.C,RN3*%
X155187601Y-115188655D03*
D19*
X155187601Y-114388655D03*
X155187601Y-113588655D03*
D18*
X155187601Y-112788655D03*
X153387601Y-112788655D03*
D19*
X153387601Y-113588655D03*
X153387601Y-114388655D03*
D18*
X153387601Y-115188655D03*
%TD*%
D22*
%TO.C,H2*%
X73610000Y-144440000D03*
%TD*%
D12*
%TO.C,U102*%
X143305101Y-126698982D03*
X145845101Y-126698982D03*
X145845101Y-121198982D03*
X143305101Y-121198982D03*
%TD*%
D13*
%TO.C,IC3*%
X157487601Y-96028327D03*
X157487601Y-96678327D03*
X157487601Y-97328327D03*
X157487601Y-97978327D03*
X157487601Y-98628327D03*
X157487601Y-99278327D03*
X157487601Y-99928327D03*
X157487601Y-100578327D03*
X163357601Y-100578327D03*
X163357601Y-99928327D03*
X163357601Y-99278327D03*
X163357601Y-98628327D03*
X163357601Y-97978327D03*
X163357601Y-97328327D03*
X163357601Y-96678327D03*
X163357601Y-96028327D03*
%TD*%
D14*
%TO.C,R5*%
X153875101Y-64131482D03*
X155700101Y-64131482D03*
%TD*%
D20*
%TO.C,U606*%
X89275000Y-74087500D03*
X89275000Y-76627500D03*
X94775000Y-76627500D03*
X94775000Y-74087500D03*
%TD*%
D12*
%TO.C,U408*%
X129367601Y-79718000D03*
X131907601Y-79718000D03*
X131907601Y-74218000D03*
X129367601Y-74218000D03*
%TD*%
D21*
%TO.C,C3*%
X159212601Y-94578327D03*
X157487601Y-94578327D03*
%TD*%
%TO.C,C1*%
X159212601Y-125898982D03*
X157487601Y-125898982D03*
%TD*%
D14*
%TO.C,R508*%
X129725101Y-65581482D03*
X131550101Y-65581482D03*
%TD*%
D18*
%TO.C,RN8*%
X153987601Y-85188655D03*
D19*
X153987601Y-85988655D03*
X153987601Y-86788655D03*
D18*
X153987601Y-87588655D03*
X155787601Y-87588655D03*
D19*
X155787601Y-86788655D03*
X155787601Y-85988655D03*
D18*
X155787601Y-85188655D03*
%TD*%
D12*
%TO.C,U206*%
X120067601Y-111038655D03*
X122607601Y-111038655D03*
X122607601Y-105538655D03*
X120067601Y-105538655D03*
%TD*%
D23*
%TO.C,C6*%
X90025000Y-137040000D03*
X90025000Y-135315000D03*
%TD*%
D14*
%TO.C,R101*%
X148312601Y-128448982D03*
X150137601Y-128448982D03*
%TD*%
D24*
%TO.C,IC8*%
X106900000Y-135322500D03*
X106250000Y-135322500D03*
X105600000Y-135322500D03*
X104950000Y-135322500D03*
X104300000Y-135322500D03*
X103650000Y-135322500D03*
X103000000Y-135322500D03*
X102350000Y-135322500D03*
X102350000Y-141192500D03*
X103000000Y-141192500D03*
X103650000Y-141192500D03*
X104300000Y-141192500D03*
X104950000Y-141192500D03*
X105600000Y-141192500D03*
X106250000Y-141192500D03*
X106900000Y-141192500D03*
%TD*%
D14*
%TO.C,R107*%
X125075101Y-128448982D03*
X126900101Y-128448982D03*
%TD*%
%TO.C,R3*%
X153875101Y-95678327D03*
X155700101Y-95678327D03*
%TD*%
D10*
%TO.C,R601*%
X87525000Y-102345000D03*
X87525000Y-104170000D03*
%TD*%
D14*
%TO.C,R403*%
X139012601Y-81468000D03*
X140837601Y-81468000D03*
%TD*%
D25*
%TO.C,FB8*%
X108275000Y-133795000D03*
X108275000Y-132220000D03*
%TD*%
D21*
%TO.C,C4*%
X159212601Y-78918000D03*
X157487601Y-78918000D03*
%TD*%
D20*
%TO.C,U704*%
X104925000Y-83707500D03*
X104925000Y-86247500D03*
X110425000Y-86247500D03*
X110425000Y-83707500D03*
%TD*%
D26*
%TO.C,C9*%
X161462500Y-141650000D03*
X158337500Y-141650000D03*
%TD*%
D10*
%TO.C,R604*%
X87525000Y-88395000D03*
X87525000Y-90220000D03*
%TD*%
%TO.C,R701*%
X103175000Y-70105000D03*
X103175000Y-71930000D03*
%TD*%
D27*
%TO.C,RN16*%
X101625000Y-131357500D03*
D28*
X100825000Y-131357500D03*
X100025000Y-131357500D03*
D27*
X99225000Y-131357500D03*
X99225000Y-133157500D03*
D28*
X100025000Y-133157500D03*
X100825000Y-133157500D03*
D27*
X101625000Y-133157500D03*
%TD*%
D10*
%TO.C,R8*%
X106725000Y-131745000D03*
X106725000Y-133570000D03*
%TD*%
D20*
%TO.C,U603*%
X89275000Y-92687500D03*
X89275000Y-95227500D03*
X94775000Y-95227500D03*
X94775000Y-92687500D03*
%TD*%
D10*
%TO.C,R704*%
X103175000Y-84065000D03*
X103175000Y-85890000D03*
%TD*%
D14*
%TO.C,R505*%
X115775101Y-65581482D03*
X117600101Y-65581482D03*
%TD*%
D29*
%TO.C,R7*%
X90329000Y-141448500D03*
X90329000Y-139623500D03*
%TD*%
D20*
%TO.C,U608*%
X89275000Y-83387500D03*
X89275000Y-85927500D03*
X94775000Y-85927500D03*
X94775000Y-83387500D03*
%TD*%
D30*
%TO.C,C10*%
X163700000Y-142025000D03*
X163700000Y-138900000D03*
%TD*%
D20*
%TO.C,U706*%
X104925000Y-116257500D03*
X104925000Y-118797500D03*
X110425000Y-118797500D03*
X110425000Y-116257500D03*
%TD*%
D10*
%TO.C,R711*%
X103175000Y-98015000D03*
X103175000Y-99840000D03*
%TD*%
%TO.C,R603*%
X87525000Y-93045000D03*
X87525000Y-94870000D03*
%TD*%
D20*
%TO.C,U604*%
X89275000Y-88037500D03*
X89275000Y-90577500D03*
X94775000Y-90577500D03*
X94775000Y-88037500D03*
%TD*%
%TO.C,U705*%
X104925000Y-120907500D03*
X104925000Y-123447500D03*
X110425000Y-123447500D03*
X110425000Y-120907500D03*
%TD*%
D13*
%TO.C,IC1*%
X157487601Y-127348982D03*
X157487601Y-127998982D03*
X157487601Y-128648982D03*
X157487601Y-129298982D03*
X157487601Y-129948982D03*
X157487601Y-130598982D03*
X157487601Y-131248982D03*
X157487601Y-131898982D03*
X163357601Y-131898982D03*
X163357601Y-131248982D03*
X163357601Y-130598982D03*
X163357601Y-129948982D03*
X163357601Y-129298982D03*
X163357601Y-128648982D03*
X163357601Y-127998982D03*
X163357601Y-127348982D03*
%TD*%
D12*
%TO.C,U503*%
X138655101Y-63831482D03*
X141195101Y-63831482D03*
X141195101Y-58331482D03*
X138655101Y-58331482D03*
%TD*%
D20*
%TO.C,U709*%
X104925000Y-88357500D03*
X104925000Y-90897500D03*
X110425000Y-90897500D03*
X110425000Y-88357500D03*
%TD*%
D10*
%TO.C,R612*%
X87525000Y-106995000D03*
X87525000Y-108820000D03*
%TD*%
D20*
%TO.C,U707*%
X104925000Y-111607500D03*
X104925000Y-114147500D03*
X110425000Y-114147500D03*
X110425000Y-111607500D03*
%TD*%
D14*
%TO.C,R502*%
X143662601Y-65631482D03*
X145487601Y-65631482D03*
%TD*%
D12*
%TO.C,U201*%
X147955101Y-111038655D03*
X150495101Y-111038655D03*
X150495101Y-105538655D03*
X147955101Y-105538655D03*
%TD*%
D20*
%TO.C,U612*%
X89275000Y-106637500D03*
X89275000Y-109177500D03*
X94775000Y-109177500D03*
X94775000Y-106637500D03*
%TD*%
D14*
%TO.C,R303*%
X139012601Y-97128327D03*
X140837601Y-97128327D03*
%TD*%
%TO.C,R306*%
X120425101Y-97128327D03*
X122250101Y-97128327D03*
%TD*%
%TO.C,R301*%
X148312601Y-97128327D03*
X150137601Y-97128327D03*
%TD*%
D12*
%TO.C,U406*%
X120067601Y-79718000D03*
X122607601Y-79718000D03*
X122607601Y-74218000D03*
X120067601Y-74218000D03*
%TD*%
%TO.C,U508*%
X129367601Y-63831482D03*
X131907601Y-63831482D03*
X131907601Y-58331482D03*
X129367601Y-58331482D03*
%TD*%
D10*
%TO.C,R712*%
X103175000Y-102665000D03*
X103175000Y-104490000D03*
%TD*%
D12*
%TO.C,U506*%
X120067601Y-63831482D03*
X122607601Y-63831482D03*
X122607601Y-58331482D03*
X120067601Y-58331482D03*
%TD*%
D14*
%TO.C,R108*%
X129725101Y-128448982D03*
X131550101Y-128448982D03*
%TD*%
D20*
%TO.C,U710*%
X104925000Y-93007500D03*
X104925000Y-95547500D03*
X110425000Y-95547500D03*
X110425000Y-93007500D03*
%TD*%
D12*
%TO.C,U105*%
X115417601Y-126698982D03*
X117957601Y-126698982D03*
X117957601Y-121198982D03*
X115417601Y-121198982D03*
%TD*%
D27*
%TO.C,RN14*%
X97675000Y-131357500D03*
D28*
X96875000Y-131357500D03*
X96075000Y-131357500D03*
D27*
X95275000Y-131357500D03*
X95275000Y-133157500D03*
D28*
X96075000Y-133157500D03*
X96875000Y-133157500D03*
D27*
X97675000Y-133157500D03*
%TD*%
D12*
%TO.C,U402*%
X143305101Y-79718000D03*
X145845101Y-79718000D03*
X145845101Y-74218000D03*
X143305101Y-74218000D03*
%TD*%
D31*
%TO.C,FB2*%
X155775101Y-109838655D03*
X154200101Y-109838655D03*
%TD*%
D18*
%TO.C,RN5*%
X155187601Y-99528327D03*
D19*
X155187601Y-98728327D03*
X155187601Y-97928327D03*
D18*
X155187601Y-97128327D03*
X153387601Y-97128327D03*
D19*
X153387601Y-97928327D03*
X153387601Y-98728327D03*
D18*
X153387601Y-99528327D03*
%TD*%
D10*
%TO.C,R606*%
X87525000Y-74445000D03*
X87525000Y-76270000D03*
%TD*%
%TO.C,R710*%
X103175000Y-93365000D03*
X103175000Y-95190000D03*
%TD*%
D12*
%TO.C,U505*%
X115417601Y-63831482D03*
X117957601Y-63831482D03*
X117957601Y-58331482D03*
X115417601Y-58331482D03*
%TD*%
D20*
%TO.C,U611*%
X89275000Y-111287500D03*
X89275000Y-113827500D03*
X94775000Y-113827500D03*
X94775000Y-111287500D03*
%TD*%
D12*
%TO.C,U304*%
X134005101Y-95378327D03*
X136545101Y-95378327D03*
X136545101Y-89878327D03*
X134005101Y-89878327D03*
%TD*%
D14*
%TO.C,R208*%
X129725101Y-112788655D03*
X131550101Y-112788655D03*
%TD*%
D24*
%TO.C,IC6*%
X88575000Y-135315000D03*
X87925000Y-135315000D03*
X87275000Y-135315000D03*
X86625000Y-135315000D03*
X85975000Y-135315000D03*
X85325000Y-135315000D03*
X84675000Y-135315000D03*
X84025000Y-135315000D03*
X84025000Y-141185000D03*
X84675000Y-141185000D03*
X85325000Y-141185000D03*
X85975000Y-141185000D03*
X86625000Y-141185000D03*
X87275000Y-141185000D03*
X87925000Y-141185000D03*
X88575000Y-141185000D03*
%TD*%
D12*
%TO.C,U504*%
X134005101Y-63831482D03*
X136545101Y-63831482D03*
X136545101Y-58331482D03*
X134005101Y-58331482D03*
%TD*%
D18*
%TO.C,RN10*%
X154037601Y-69338655D03*
D19*
X154037601Y-70138655D03*
X154037601Y-70938655D03*
D18*
X154037601Y-71738655D03*
X155837601Y-71738655D03*
D19*
X155837601Y-70938655D03*
X155837601Y-70138655D03*
D18*
X155837601Y-69338655D03*
%TD*%
D12*
%TO.C,U106*%
X120067601Y-126698982D03*
X122607601Y-126698982D03*
X122607601Y-121198982D03*
X120067601Y-121198982D03*
%TD*%
D20*
%TO.C,U609*%
X89275000Y-120587500D03*
X89275000Y-123127500D03*
X94775000Y-123127500D03*
X94775000Y-120587500D03*
%TD*%
D14*
%TO.C,R302*%
X143662601Y-97178327D03*
X145487601Y-97178327D03*
%TD*%
%TO.C,R202*%
X143662601Y-112838655D03*
X145487601Y-112838655D03*
%TD*%
D23*
%TO.C,C8*%
X108275000Y-137032500D03*
X108275000Y-135307500D03*
%TD*%
D14*
%TO.C,R405*%
X115775101Y-81468000D03*
X117600101Y-81468000D03*
%TD*%
D12*
%TO.C,U407*%
X124717601Y-79718000D03*
X127257601Y-79718000D03*
X127257601Y-74218000D03*
X124717601Y-74218000D03*
%TD*%
D32*
%TO.C,X1*%
X168390000Y-60990000D03*
X168390000Y-62990000D03*
X168390000Y-64990000D03*
X168390000Y-66990000D03*
X168390000Y-68990000D03*
X168390000Y-70990000D03*
X168390000Y-72990000D03*
X168390000Y-74990000D03*
X168390000Y-76990000D03*
X168390000Y-78990000D03*
X168390000Y-80990000D03*
X168390000Y-82990000D03*
X168390000Y-84990000D03*
X168390000Y-86990000D03*
X168390000Y-88990000D03*
X168390000Y-90990000D03*
X168390000Y-92990000D03*
X168390000Y-94990000D03*
X168390000Y-96990000D03*
X168390000Y-98990000D03*
X168390000Y-100990000D03*
X168390000Y-102990000D03*
X168390000Y-104990000D03*
X168390000Y-106990000D03*
X168390000Y-108990000D03*
X168390000Y-110990000D03*
X168390000Y-112990000D03*
X168390000Y-114990000D03*
X168390000Y-116990000D03*
X168390000Y-118990000D03*
X168390000Y-120990000D03*
X168390000Y-122990000D03*
X168390000Y-124990000D03*
X168390000Y-126990000D03*
X168390000Y-128990000D03*
X168390000Y-130990000D03*
X168390000Y-132990000D03*
X168390000Y-134990000D03*
X168390000Y-136990000D03*
X168390000Y-138990000D03*
X168390000Y-56140000D03*
X168390000Y-58140000D03*
X168390000Y-141840000D03*
X168390000Y-143840000D03*
%TD*%
D10*
%TO.C,R609*%
X87525000Y-120945000D03*
X87525000Y-122770000D03*
%TD*%
D14*
%TO.C,R404*%
X134362601Y-81468000D03*
X136187601Y-81468000D03*
%TD*%
%TO.C,R4*%
X153875101Y-80018000D03*
X155700101Y-80018000D03*
%TD*%
D31*
%TO.C,FB3*%
X155775101Y-94178327D03*
X154200101Y-94178327D03*
%TD*%
D21*
%TO.C,C7*%
X94691500Y-135186000D03*
X92966500Y-135186000D03*
%TD*%
D14*
%TO.C,R501*%
X148312601Y-65581482D03*
X150137601Y-65581482D03*
%TD*%
D27*
%TO.C,RN11*%
X84725000Y-133115000D03*
D28*
X85525000Y-133115000D03*
X86325000Y-133115000D03*
D27*
X87125000Y-133115000D03*
X87125000Y-131315000D03*
D28*
X86325000Y-131315000D03*
X85525000Y-131315000D03*
D27*
X84725000Y-131315000D03*
%TD*%
D20*
%TO.C,U712*%
X104925000Y-102307500D03*
X104925000Y-104847500D03*
X110425000Y-104847500D03*
X110425000Y-102307500D03*
%TD*%
D12*
%TO.C,U308*%
X129367601Y-95378327D03*
X131907601Y-95378327D03*
X131907601Y-89878327D03*
X129367601Y-89878327D03*
%TD*%
D27*
%TO.C,RN15*%
X102925000Y-133157500D03*
D28*
X103725000Y-133157500D03*
X104525000Y-133157500D03*
D27*
X105325000Y-133157500D03*
X105325000Y-131357500D03*
D28*
X104525000Y-131357500D03*
X103725000Y-131357500D03*
D27*
X102925000Y-131357500D03*
%TD*%
D14*
%TO.C,R503*%
X139012601Y-65581482D03*
X140837601Y-65581482D03*
%TD*%
D12*
%TO.C,U306*%
X120067601Y-95378327D03*
X122607601Y-95378327D03*
X122607601Y-89878327D03*
X120067601Y-89878327D03*
%TD*%
D10*
%TO.C,R705*%
X103175000Y-121265000D03*
X103175000Y-123090000D03*
%TD*%
D20*
%TO.C,U703*%
X104925000Y-79057500D03*
X104925000Y-81597500D03*
X110425000Y-81597500D03*
X110425000Y-79057500D03*
%TD*%
D14*
%TO.C,R1*%
X153875101Y-126998982D03*
X155700101Y-126998982D03*
%TD*%
D20*
%TO.C,U602*%
X89275000Y-97337500D03*
X89275000Y-99877500D03*
X94775000Y-99877500D03*
X94775000Y-97337500D03*
%TD*%
D13*
%TO.C,IC2*%
X157487601Y-111688655D03*
X157487601Y-112338655D03*
X157487601Y-112988655D03*
X157487601Y-113638655D03*
X157487601Y-114288655D03*
X157487601Y-114938655D03*
X157487601Y-115588655D03*
X157487601Y-116238655D03*
X163357601Y-116238655D03*
X163357601Y-115588655D03*
X163357601Y-114938655D03*
X163357601Y-114288655D03*
X163357601Y-113638655D03*
X163357601Y-112988655D03*
X163357601Y-112338655D03*
X163357601Y-111688655D03*
%TD*%
D10*
%TO.C,R709*%
X103175000Y-88715000D03*
X103175000Y-90540000D03*
%TD*%
D14*
%TO.C,R201*%
X148312601Y-112788655D03*
X150137601Y-112788655D03*
%TD*%
%TO.C,R2*%
X153875101Y-111338655D03*
X155700101Y-111338655D03*
%TD*%
D12*
%TO.C,U303*%
X138655101Y-95378327D03*
X141195101Y-95378327D03*
X141195101Y-89878327D03*
X138655101Y-89878327D03*
%TD*%
D10*
%TO.C,R607*%
X87525000Y-79095000D03*
X87525000Y-80920000D03*
%TD*%
D12*
%TO.C,U507*%
X124717601Y-63831482D03*
X127257601Y-63831482D03*
X127257601Y-58331482D03*
X124717601Y-58331482D03*
%TD*%
D25*
%TO.C,FB6*%
X90075000Y-133565000D03*
X90075000Y-131990000D03*
%TD*%
D10*
%TO.C,R611*%
X87525000Y-111645000D03*
X87525000Y-113470000D03*
%TD*%
D12*
%TO.C,U108*%
X129367601Y-126698982D03*
X131907601Y-126698982D03*
X131907601Y-121198982D03*
X129367601Y-121198982D03*
%TD*%
D14*
%TO.C,R103*%
X139012601Y-128448982D03*
X140837601Y-128448982D03*
%TD*%
D10*
%TO.C,R703*%
X103175000Y-79415000D03*
X103175000Y-81240000D03*
%TD*%
D12*
%TO.C,U307*%
X124717601Y-95378327D03*
X127257601Y-95378327D03*
X127257601Y-89878327D03*
X124717601Y-89878327D03*
%TD*%
D22*
%TO.C,H1*%
X73610000Y-55540000D03*
%TD*%
D20*
%TO.C,U708*%
X104925000Y-106957500D03*
X104925000Y-109497500D03*
X110425000Y-109497500D03*
X110425000Y-106957500D03*
%TD*%
D10*
%TO.C,R6*%
X88575000Y-131702500D03*
X88575000Y-133527500D03*
%TD*%
D13*
%TO.C,IC5*%
X157487601Y-64481482D03*
X157487601Y-65131482D03*
X157487601Y-65781482D03*
X157487601Y-66431482D03*
X157487601Y-67081482D03*
X157487601Y-67731482D03*
X157487601Y-68381482D03*
X157487601Y-69031482D03*
X163357601Y-69031482D03*
X163357601Y-68381482D03*
X163357601Y-67731482D03*
X163357601Y-67081482D03*
X163357601Y-66431482D03*
X163357601Y-65781482D03*
X163357601Y-65131482D03*
X163357601Y-64481482D03*
%TD*%
D14*
%TO.C,R305*%
X115775101Y-97128327D03*
X117600101Y-97128327D03*
%TD*%
D20*
%TO.C,U601*%
X89275000Y-101987500D03*
X89275000Y-104527500D03*
X94775000Y-104527500D03*
X94775000Y-101987500D03*
%TD*%
D12*
%TO.C,U405*%
X115417601Y-79718000D03*
X117957601Y-79718000D03*
X117957601Y-74218000D03*
X115417601Y-74218000D03*
%TD*%
D25*
%TO.C,FB7*%
X93429000Y-127923500D03*
X93429000Y-126348500D03*
%TD*%
D18*
%TO.C,RN7*%
X155187601Y-83868000D03*
D19*
X155187601Y-83068000D03*
X155187601Y-82268000D03*
D18*
X155187601Y-81468000D03*
X153387601Y-81468000D03*
D19*
X153387601Y-82268000D03*
X153387601Y-83068000D03*
D18*
X153387601Y-83868000D03*
%TD*%
D14*
%TO.C,R102*%
X143662601Y-128498982D03*
X145487601Y-128498982D03*
%TD*%
%TO.C,R205*%
X115775101Y-112788655D03*
X117600101Y-112788655D03*
%TD*%
%TO.C,R203*%
X139012601Y-112788655D03*
X140837601Y-112788655D03*
%TD*%
D12*
%TO.C,U302*%
X143305101Y-95378327D03*
X145845101Y-95378327D03*
X145845101Y-89878327D03*
X143305101Y-89878327D03*
%TD*%
D14*
%TO.C,R406*%
X120425101Y-81468000D03*
X122250101Y-81468000D03*
%TD*%
D18*
%TO.C,RN1*%
X155187601Y-130848982D03*
D19*
X155187601Y-130048982D03*
X155187601Y-129248982D03*
D18*
X155187601Y-128448982D03*
X153387601Y-128448982D03*
D19*
X153387601Y-129248982D03*
X153387601Y-130048982D03*
D18*
X153387601Y-130848982D03*
%TD*%
D12*
%TO.C,U502*%
X143305101Y-63831482D03*
X145845101Y-63831482D03*
X145845101Y-58331482D03*
X143305101Y-58331482D03*
%TD*%
D14*
%TO.C,R106*%
X120425101Y-128448982D03*
X122250101Y-128448982D03*
%TD*%
D13*
%TO.C,IC7*%
X93144000Y-136611000D03*
X93144000Y-137261000D03*
X93144000Y-137911000D03*
X93144000Y-138561000D03*
X93144000Y-139211000D03*
X93144000Y-139861000D03*
X93144000Y-140511000D03*
X93144000Y-141161000D03*
X99014000Y-141161000D03*
X99014000Y-140511000D03*
X99014000Y-139861000D03*
X99014000Y-139211000D03*
X99014000Y-138561000D03*
X99014000Y-137911000D03*
X99014000Y-137261000D03*
X99014000Y-136611000D03*
%TD*%
D14*
%TO.C,R206*%
X120425101Y-112788655D03*
X122250101Y-112788655D03*
%TD*%
D20*
%TO.C,U605*%
X89275000Y-69427500D03*
X89275000Y-71967500D03*
X94775000Y-71967500D03*
X94775000Y-69427500D03*
%TD*%
D18*
%TO.C,RN4*%
X153987601Y-116538655D03*
D19*
X153987601Y-117338655D03*
X153987601Y-118138655D03*
D18*
X153987601Y-118938655D03*
X155787601Y-118938655D03*
D19*
X155787601Y-118138655D03*
X155787601Y-117338655D03*
D18*
X155787601Y-116538655D03*
%TD*%
D14*
%TO.C,R504*%
X134362601Y-65581482D03*
X136187601Y-65581482D03*
%TD*%
%TO.C,R408*%
X129725101Y-81468000D03*
X131550101Y-81468000D03*
%TD*%
D27*
%TO.C,RN13*%
X91525000Y-133140000D03*
D28*
X92325000Y-133140000D03*
X93125000Y-133140000D03*
D27*
X93925000Y-133140000D03*
X93925000Y-131340000D03*
D28*
X93125000Y-131340000D03*
X92325000Y-131340000D03*
D27*
X91525000Y-131340000D03*
%TD*%
D12*
%TO.C,U104*%
X134005101Y-126698982D03*
X136545101Y-126698982D03*
X136545101Y-121198982D03*
X134005101Y-121198982D03*
%TD*%
%TO.C,U404*%
X134005101Y-79718000D03*
X136545101Y-79718000D03*
X136545101Y-74218000D03*
X134005101Y-74218000D03*
%TD*%
%TO.C,U202*%
X143305101Y-111038655D03*
X145845101Y-111038655D03*
X145845101Y-105538655D03*
X143305101Y-105538655D03*
%TD*%
D31*
%TO.C,FB1*%
X155775101Y-125498982D03*
X154200101Y-125498982D03*
%TD*%
D14*
%TO.C,R407*%
X125075101Y-81468000D03*
X126900101Y-81468000D03*
%TD*%
%TO.C,R207*%
X125075101Y-112788655D03*
X126900101Y-112788655D03*
%TD*%
%TO.C,R105*%
X115775101Y-128448982D03*
X117600101Y-128448982D03*
%TD*%
%TO.C,R204*%
X134362601Y-112788655D03*
X136187601Y-112788655D03*
%TD*%
D12*
%TO.C,U103*%
X138655101Y-126698982D03*
X141195101Y-126698982D03*
X141195101Y-121198982D03*
X138655101Y-121198982D03*
%TD*%
D10*
%TO.C,R707*%
X103175000Y-111965000D03*
X103175000Y-113790000D03*
%TD*%
%TO.C,R708*%
X103175000Y-107315000D03*
X103175000Y-109140000D03*
%TD*%
D31*
%TO.C,FB4*%
X155775101Y-78518000D03*
X154200101Y-78518000D03*
%TD*%
D27*
%TO.C,RN12*%
X84075000Y-128157500D03*
D28*
X83275000Y-128157500D03*
X82475000Y-128157500D03*
D27*
X81675000Y-128157500D03*
X81675000Y-129957500D03*
D28*
X82475000Y-129957500D03*
X83275000Y-129957500D03*
D27*
X84075000Y-129957500D03*
%TD*%
D14*
%TO.C,R506*%
X120425101Y-65581482D03*
X122250101Y-65581482D03*
%TD*%
D12*
%TO.C,U204*%
X134005101Y-111038655D03*
X136545101Y-111038655D03*
X136545101Y-105538655D03*
X134005101Y-105538655D03*
%TD*%
D20*
%TO.C,U702*%
X104925000Y-74407500D03*
X104925000Y-76947500D03*
X110425000Y-76947500D03*
X110425000Y-74407500D03*
%TD*%
D12*
%TO.C,U208*%
X129367601Y-111038655D03*
X131907601Y-111038655D03*
X131907601Y-105538655D03*
X129367601Y-105538655D03*
%TD*%
%TO.C,U205*%
X115417601Y-111038655D03*
X117957601Y-111038655D03*
X117957601Y-105538655D03*
X115417601Y-105538655D03*
%TD*%
%TO.C,U403*%
X138655101Y-79718000D03*
X141195101Y-79718000D03*
X141195101Y-74218000D03*
X138655101Y-74218000D03*
%TD*%
D10*
%TO.C,R706*%
X103175000Y-116615000D03*
X103175000Y-118440000D03*
%TD*%
D20*
%TO.C,U701*%
X104925000Y-69747500D03*
X104925000Y-72287500D03*
X110425000Y-72287500D03*
X110425000Y-69747500D03*
%TD*%
D31*
%TO.C,FB5*%
X155775101Y-62631482D03*
X154200101Y-62631482D03*
%TD*%
D12*
%TO.C,U207*%
X124717601Y-111038655D03*
X127257601Y-111038655D03*
X127257601Y-105538655D03*
X124717601Y-105538655D03*
%TD*%
D14*
%TO.C,R401*%
X148312601Y-81468000D03*
X150137601Y-81468000D03*
%TD*%
D20*
%TO.C,U610*%
X89275000Y-115937500D03*
X89275000Y-118477500D03*
X94775000Y-118477500D03*
X94775000Y-115937500D03*
%TD*%
D14*
%TO.C,R307*%
X125075101Y-97128327D03*
X126900101Y-97128327D03*
%TD*%
D18*
%TO.C,RN2*%
X153387601Y-132188655D03*
D19*
X153387601Y-132988655D03*
X153387601Y-133788655D03*
D18*
X153387601Y-134588655D03*
X155187601Y-134588655D03*
D19*
X155187601Y-133788655D03*
X155187601Y-132988655D03*
D18*
X155187601Y-132188655D03*
%TD*%
D14*
%TO.C,R507*%
X125075101Y-65581482D03*
X126900101Y-65581482D03*
%TD*%
D21*
%TO.C,C5*%
X159212601Y-63031482D03*
X157487601Y-63031482D03*
%TD*%
G36*
X170038828Y-147201429D02*
G01*
X170040000Y-147204257D01*
X170040000Y-149979750D01*
X170038828Y-149982578D01*
X170036000Y-149983750D01*
X70044000Y-149989999D01*
X70041172Y-149988828D01*
X70040000Y-149985999D01*
X70040000Y-147204687D01*
X70041172Y-147201859D01*
X70044000Y-147200687D01*
X170036000Y-147200257D01*
X170038828Y-147201429D01*
G37*
G36*
X170038828Y-49991172D02*
G01*
X170040000Y-49994000D01*
X170040000Y-52769491D01*
X170038828Y-52772319D01*
X170036000Y-52773491D01*
X70044000Y-52779311D01*
X70041172Y-52778140D01*
X70040000Y-52775311D01*
X70040000Y-49994000D01*
X70041172Y-49991172D01*
X70044000Y-49990000D01*
X170036000Y-49990000D01*
X170038828Y-49991172D01*
G37*
M02*
